<svg xmlns="http://www.w3.org/2000/svg" version="1.1" viewBox="-5.0 -10.0 110.0 135.0">
 <path d="m76.766 7.8359h-53.531c-1.6016 0-2.8984 1.3008-2.8984 2.8984v78.535c0 1.6016 1.3008 2.8984 2.8984 2.8984h53.531c1.6016 0 2.8984-1.3008 2.8984-2.8984v-78.535c0-1.6016-1.3008-2.8984-2.8984-2.8984zm1.8984 81.43c0 1.0469-0.85156 1.8984-1.8984 1.8984h-53.531c-1.0469 0-1.8984-0.85156-1.8984-1.8984v-78.531c0-1.0469 0.85156-1.8984 1.8984-1.8984h53.531c1.0469 0 1.8984 0.85156 1.8984 1.8984v78.535z"/>
 <path d="m68.434 32.836h-36.867c-1.6016 0-2.8984 1.3008-2.8984 2.8984v45.199c0 1.6016 1.3008 2.8984 2.8984 2.8984h36.867c1.6016 0 2.8984-1.3008 2.8984-2.8984v-45.199c0-1.6016-1.3008-2.8984-2.8984-2.8984zm1.9023 48.098c0 1.0469-0.85156 1.8984-1.8984 1.8984h-36.867c-1.0469 0-1.8984-0.85156-1.8984-1.8984v-45.199c0-1.0469 0.85156-1.8984 1.8984-1.8984h36.867c1.0469 0 1.8984 0.85156 1.8984 1.8984z"/>
 <path d="m65.066 37h-30.133c-1.1562 0-2.1016 0.94141-2.1016 2.1016v17.633c0 1.1562 0.94141 2.1016 2.1016 2.1016h30.133c1.1562 0 2.1016-0.94141 2.1016-2.1016v-17.633c0-1.1562-0.94141-2.1016-2.1016-2.1016zm1.1016 19.734c0 0.60547-0.49219 1.1016-1.1016 1.1016h-30.133c-0.60547 0-1.1016-0.49219-1.1016-1.1016v-17.633c0-0.60547 0.49219-1.1016 1.1016-1.1016h30.133c0.60547 0 1.1016 0.49219 1.1016 1.1016z"/>
 <path d="m73.398 12h-46.801c-1.1562 0-2.1016 0.94141-2.1016 2.1016v9.3008c0 1.1562 0.94141 2.1016 2.1016 2.1016h46.801c1.1562 0 2.1016-0.94141 2.1016-2.1016v-9.3008c0-1.1562-0.94141-2.1016-2.1016-2.1016zm1.1016 11.398c0 0.60547-0.49219 1.1016-1.1016 1.1016h-46.801c-0.60547 0-1.1016-0.49219-1.1016-1.1016v-9.3008c0-0.60547 0.49219-1.1016 1.1016-1.1016h46.801c0.60547 0 1.1016 0.49219 1.1016 1.1016z"/>
 <path d="m73.398 28.664h-46.797c-1.1562 0-2.1016 0.94141-2.1016 2.1016v55.133c0 1.1562 0.94141 2.1016 2.1016 2.1016h46.797c1.1562 0 2.1016-0.94141 2.1016-2.1016v-55.133c0-1.1562-0.94141-2.1016-2.1016-2.1016zm1.1016 57.234c0 0.60547-0.49219 1.1016-1.1016 1.1016h-46.797c-0.60547 0-1.1016-0.49219-1.1016-1.1016l0.003906-55.133c0-0.60547 0.49219-1.1016 1.1016-1.1016h46.797c0.60547 0 1.1016 0.49219 1.1016 1.1016v55.133z"/>
 <path d="m33.336 63h33.336c0.27734 0 0.5-0.22266 0.5-0.5s-0.22266-0.5-0.5-0.5h-33.336c-0.27734 0-0.5 0.22266-0.5 0.5s0.22266 0.5 0.5 0.5z"/>
 <path d="m66.668 66.164h-33.336c-0.27734 0-0.5 0.22266-0.5 0.5 0 0.27734 0.22266 0.5 0.5 0.5h33.336c0.27734 0 0.5-0.22266 0.5-0.5 0-0.27734-0.22266-0.5-0.5-0.5z"/>
 <path d="m50 70.336h-16.664c-0.27734 0-0.5 0.22266-0.5 0.5 0 0.27734 0.22266 0.5 0.5 0.5h16.664c0.27734 0 0.5-0.22266 0.5-0.5 0-0.27734-0.22266-0.5-0.5-0.5z"/>
 <path d="m41.664 78.664h-8.3359c-0.27734 0-0.5 0.22266-0.5 0.5 0 0.27734 0.22266 0.5 0.5 0.5h8.3359c0.27734 0 0.5-0.22266 0.5-0.5 0-0.27734-0.22266-0.5-0.5-0.5z"/>
 <path d="m66.664 78.664h-8.3359c-0.27734 0-0.5 0.22266-0.5 0.5 0 0.27734 0.22266 0.5 0.5 0.5h8.3359c0.27734 0 0.5-0.22266 0.5-0.5 0-0.27734-0.22266-0.5-0.5-0.5z"/>
 <path d="m50 16.164h-20.836c-0.27734 0-0.5 0.22266-0.5 0.5 0 0.27734 0.22266 0.5 0.5 0.5h20.836c0.27734 0 0.5-0.22266 0.5-0.5 0-0.27734-0.22266-0.5-0.5-0.5z"/>
 <path d="m37.5 20.336h-8.3359c-0.27734 0-0.5 0.22266-0.5 0.5 0 0.27734 0.22266 0.5 0.5 0.5h8.3359c0.27734 0 0.5-0.22266 0.5-0.5 0-0.27734-0.22266-0.5-0.5-0.5z"/>
 <path d="m70.836 16.164h-4.1641c-0.27734 0-0.5 0.22266-0.5 0.5v4.1641c0 0.27734 0.22266 0.5 0.5 0.5h4.1641c0.27734 0 0.5-0.22266 0.5-0.5v-4.1641c0-0.27734-0.22266-0.5-0.5-0.5zm-0.5 4.1719h-3.1641v-3.1641h3.1641z"/>
<text x="0.0" y="117.5" font-size="5.0" font-weight="bold" font-family="Arbeit Regular, Helvetica, Arial-Unicode, Arial, Sans-serif" fill="#000000">Created by Rizky Mardika</text><text x="0.0" y="122.5" font-size="5.0" font-weight="bold" font-family="Arbeit Regular, Helvetica, Arial-Unicode, Arial, Sans-serif" fill="#000000">from Noun Project</text></svg>