<svg xmlns="http://www.w3.org/2000/svg" viewBox="0 0 100 125" x="0px" y="0px"><path d="M94.707,30.61854,75.18994,11.10194a.9968.9968,0,0,0-.56836-.2832L59.55713,8.70985a1.0051,1.0051,0,0,0-1.02149.52051A9.79358,9.79358,0,0,1,50,14.81532a9.79358,9.79358,0,0,1-8.53564-5.585.99909.99909,0,0,0-1.02149-.52051L25.37793,10.81874a.9968.9968,0,0,0-.56836.2832L9.00049,26.911l-.00147.001-.001.00146L5.293,30.61854a.99962.99962,0,0,0,0,1.41406L17.76074,44.50038a.99964.99964,0,0,0,1.41406,0l3.70612-3.70575.00043-.00031.0003-.00042,1.63544-1.63532v51.1416a1,1,0,0,0,1,1H74.4834a1.00005,1.00005,0,0,0,1-1V39.15858L77.045,40.72016c.01941.02332.02735.05225.04926.07416s.05084.02985.07416.04926l3.6568,3.6568a.99964.99964,0,0,0,1.41406,0L94.707,32.0326a.99963.99963,0,0,0,0-1.41406ZM50,16.81532a11.63456,11.63456,0,0,0,9.95508-6.03027l2.79486.39123C61.18365,16.25044,55.951,19.86708,50,19.86708c-6.00464,0-11.198-3.59754-12.76019-8.6894l2.80511-.39263A11.63456,11.63456,0,0,0,50,16.81532Zm-31.53223,25.564L7.41406,31.32557,9.7063,29.03334,20.76007,40.08711ZM73.4834,78.18153H26.51709V57.94422H73.4834ZM26.51709,89.30018V80.18153H73.4834v9.11865ZM75.19043,36.03749a.99991.99991,0,0,0-1.707.707v19.1997H26.51709V36.74452a.99991.99991,0,0,0-1.707-.707l-2.63587,2.63562L11.12042,27.61933,25.9873,12.75282l9.26136-1.29639C36.9527,17.53816,42.99768,21.86708,50,21.86708c6.9408,0,13.04364-4.35035,14.7486-10.41108l9.26458,1.29682L88.86743,27.60707,77.81372,38.66078Zm6.3418,6.34179-2.30445-2.30444L90.28149,29.02113l2.30445,2.30444Z"/><path d="M64.50684,32.73426H54.979a1.00006,1.00006,0,0,0-1,1v7.08741a5.52414,5.52414,0,0,0,5.51807,5.51757h.4917a5.52414,5.52414,0,0,0,5.51807-5.51757V33.73426A1.00006,1.00006,0,0,0,64.50684,32.73426Zm-1,8.08741a3.52185,3.52185,0,0,1-3.51807,3.51757h-.4917A3.52185,3.52185,0,0,1,55.979,40.82167V34.73426h7.52784Z"/><text x="0" y="115" fill="#000000" font-size="5px" font-weight="bold" font-family="'Helvetica Neue', Helvetica, Arial-Unicode, Arial, Sans-serif">Created by Hui wen</text><text x="0" y="120" fill="#000000" font-size="5px" font-weight="bold" font-family="'Helvetica Neue', Helvetica, Arial-Unicode, Arial, Sans-serif">from the Noun Project</text></svg>