<svg xmlns="http://www.w3.org/2000/svg" version="1.1" viewBox="-5.0 -10.0 110.0 135.0">
 <path d="m82.836 9.3945c-20.398-3.6641-41.305 2.8789-55.934 17.504-14.633 14.629-21.176 35.543-17.508 55.934 0.70703 3.9414 3.832 7.0664 7.7695 7.7695 3.7344 0.67188 7.4844 1 11.211 1 16.629 0 32.77-6.5547 44.723-18.508 14.629-14.629 21.176-35.539 17.508-55.934-0.70703-3.9414-3.832-7.0664-7.7695-7.7695zm-11.215 3.1641c3.4805 0 6.9883 0.30469 10.477 0.93359 2.2344 0.39844 4.0039 2.1719 4.4062 4.4062 0.71094 3.9453 0.98828 7.9141 0.89453 11.844-2.2773-3.2617-4.8633-6.3984-7.8047-9.3438-2.9453-2.9453-6.082-5.5312-9.3516-7.8086 0.45703-0.011719 0.91797-0.035156 1.3789-0.035156zm13.801 31.051c-3.1641-5.9102-7.3789-11.578-12.418-16.613-5.0391-5.0391-10.711-9.2578-16.621-12.422 2.2969-0.61328 4.6289-1.0938 6.9883-1.4258 4.7109 2.6875 9.1758 6.1055 13.277 10.203 4.0977 4.0977 7.5117 8.5586 10.195 13.262-0.33203 2.3633-0.80859 4.6992-1.4219 6.9961zm-70.844 12.781c3.1641 5.9102 7.3789 11.578 12.418 16.613 5.0391 5.0391 10.711 9.2578 16.617 12.422-2.3008 0.61328-4.6328 1.0898-6.9961 1.4219-4.707-2.6875-9.1719-6.1016-13.266-10.195-4.0977-4.0977-7.5117-8.5586-10.195-13.262 0.33203-2.3633 0.80859-4.6992 1.4219-6.9961zm3.3242 30.113c-2.2344-0.39844-4.0039-2.1719-4.4062-4.4062-0.71094-3.9453-0.98828-7.9141-0.89453-11.844 2.2773 3.2617 4.8633 6.3984 7.8047 9.3438 2.9414 2.9414 6.082 5.5273 9.3477 7.8047-3.9336 0.089844-7.8984-0.1875-11.848-0.89844zm52.25-16.352c-5.9844 5.9844-13.098 10.523-20.801 13.445-6.8906-3.0586-13.59-7.7188-19.41-13.539-5.8203-5.8203-10.48-12.516-13.539-19.406 2.9219-7.707 7.457-14.82 13.445-20.805 5.9922-5.9883 13.113-10.512 20.828-13.434 6.8828 3.0586 13.57 7.7148 19.387 13.527 5.8203 5.8203 10.48 12.516 13.539 19.406-2.9219 7.707-7.457 14.82-13.445 20.805z"/>
 <path d="m64.328 32.738-2.5078 2.5078c-0.98047-0.79688-2.0078-1.5352-3.1289-2.1445-1.0117-0.54297-2.2773-0.17187-2.8242 0.83984-0.54688 1.0117-0.17188 2.2773 0.83984 2.8242 0.75781 0.41016 1.4766 0.89844 2.1602 1.4297l-4.4141 4.4141c-0.98047-0.79688-2.0039-1.5352-3.1289-2.1406-1.0117-0.55078-2.2734-0.17188-2.8242 0.83594-0.54688 1.0117-0.17188 2.2773 0.83984 2.8242 0.75781 0.41016 1.4766 0.89844 2.1602 1.4297l-5.9453 5.9453c-0.53125-0.68359-1.0195-1.4023-1.4297-2.1602-0.54688-1.0117-1.8164-1.3867-2.8242-0.83984-1.0117 0.54688-1.3906 1.8125-0.83984 2.8242 0.60937 1.1211 1.3477 2.1484 2.1406 3.1289l-4.4141 4.4141c-0.53125-0.68359-1.0195-1.4023-1.4297-2.1602-0.54687-1.0156-1.8164-1.3867-2.8242-0.83984-1.0117 0.54688-1.3906 1.8125-0.83984 2.8242 0.60938 1.1211 1.3477 2.1484 2.1406 3.1289l-2.5078 2.5078c-0.81641 0.81641-0.81641 2.1328 0 2.9453 0.40625 0.40625 0.94141 0.60938 1.4727 0.60938 0.53516 0 1.0664-0.20312 1.4727-0.60938l2.5078-2.5078c0.97656 0.79297 1.9961 1.5273 3.1172 2.1328 0.31641 0.16797 0.65234 0.25 0.98828 0.25 0.73828 0 1.457-0.39453 1.832-1.0898 0.54687-1.0117 0.17187-2.2773-0.83984-2.8242-0.75391-0.40625-1.4648-0.89062-2.1445-1.418l4.4141-4.4141c0.97656 0.79297 1.9961 1.5234 3.1133 2.1328 0.31641 0.17188 0.65234 0.25391 0.98828 0.25391 0.73828 0 1.457-0.39453 1.832-1.0898 0.54688-1.0117 0.17188-2.2773-0.83984-2.8242-0.75391-0.41016-1.4648-0.89453-2.1484-1.4219l5.9414-5.9414c0.52734 0.67969 1.0117 1.3945 1.418 2.1445 0.37891 0.69922 1.0938 1.0898 1.832 1.0898 0.33594 0 0.67578-0.082031 0.98828-0.25 1.0117-0.54688 1.3906-1.8125 0.83984-2.8242-0.60547-1.1172-1.3398-2.1406-2.1328-3.1172l4.4141-4.4141c0.52734 0.67969 1.0117 1.3945 1.418 2.1445 0.37891 0.69922 1.0938 1.0898 1.832 1.0898 0.33594 0 0.67578-0.082031 0.98828-0.25 1.0117-0.54688 1.3906-1.8125 0.83984-2.8242-0.60547-1.1172-1.3398-2.1406-2.1328-3.1172l2.5078-2.5078c0.81641-0.81641 0.81641-2.1328 0-2.9453-0.81641-0.81641-2.1328-0.81641-2.9453 0z"/>
<text x="0.0" y="117.5" font-size="5.0" font-weight="bold" font-family="Arbeit Regular, Helvetica, Arial-Unicode, Arial, Sans-serif" fill="#000000">Created by kumakamu</text><text x="0.0" y="122.5" font-size="5.0" font-weight="bold" font-family="Arbeit Regular, Helvetica, Arial-Unicode, Arial, Sans-serif" fill="#000000">from Noun Project</text></svg>