<svg xmlns="http://www.w3.org/2000/svg" data-name="Layer 1" viewBox="0 0 64 80" x="0px" y="0px"><path d="M48.971,15.029a23.989,23.989,0,1,0,0,33.942A24.029,24.029,0,0,0,48.971,15.029ZM16.443,16.443A21.936,21.936,0,0,1,32,10.01a21.87,21.87,0,0,1-.5,4.7l-1.2-.247a1,1,0,0,0-.405,1.959l1.082.223A22,22,0,0,1,29.509,20.2l-.825-.448a1,1,0,0,0-.955,1.758l.777.421a21.962,21.962,0,0,1-2.245,2.92l-.588-.588a1,1,0,0,0-1.414,1.414l.588.588a21.814,21.814,0,0,1-2.92,2.245l-.421-.777a1,1,0,0,0-1.758.955l.449.826a22.1,22.1,0,0,1-3.555,1.472L16.418,29.9a1,1,0,0,0-1.959.405l.248,1.2a21.939,21.939,0,0,1-4.7.5A21.935,21.935,0,0,1,16.443,16.443ZM10.106,34a23.911,23.911,0,0,0,5-.55l.058.278a1,1,0,1,0,1.958-.4l-.077-.376a24.005,24.005,0,0,0,4.1-1.686l.268.5a1,1,0,1,0,1.758-.954l-.295-.543a24,24,0,0,0,3.381-2.588l.472.472a1,1,0,1,0,1.414-1.414l-.473-.473a23.923,23.923,0,0,0,2.59-3.379l.542.294a1,1,0,1,0,.954-1.758l-.5-.269a24.143,24.143,0,0,0,1.68-4.1l.382.078a.94.94,0,0,0,.2.021,1,1,0,0,0,.2-1.979l-.274-.057a23.916,23.916,0,0,0,.544-5A21.935,21.935,0,0,1,53.894,29.992a23.852,23.852,0,0,0-5,.545l-.056-.269a1,1,0,1,0-1.958.4l.077.378a24.07,24.07,0,0,0-4.1,1.682l-.268-.493a1,1,0,1,0-1.758.954l.294.541a23.93,23.93,0,0,0-3.379,2.591l-.473-.473a1,1,0,0,0-1.414,1.414l.473.473a23.923,23.923,0,0,0-2.59,3.379l-.542-.294a1,1,0,0,0-.954,1.758l.5.269a24.084,24.084,0,0,0-1.682,4.1l-.38-.078a1,1,0,1,0-.4,1.958l.271.057a23.918,23.918,0,0,0-.547,5A21.935,21.935,0,0,1,10.106,34ZM47.557,47.557a21.934,21.934,0,0,1-15.564,6.432,22.007,22.007,0,0,1,.5-4.7l1.2.248a1.012,1.012,0,0,0,.2.02,1,1,0,0,0,.2-1.979l-1.084-.224A22.085,22.085,0,0,1,34.49,43.8l.826.448a1,1,0,0,0,.955-1.758l-.777-.421a21.9,21.9,0,0,1,2.245-2.92l.588.588a1,1,0,0,0,1.414-1.414l-.588-.588a21.9,21.9,0,0,1,2.92-2.245l.421.777a1,1,0,0,0,1.758-.955l-.448-.825a22.036,22.036,0,0,1,3.554-1.473l.224,1.084a1,1,0,0,0,1.959-.4l-.248-1.2a21.886,21.886,0,0,1,4.7-.5A21.934,21.934,0,0,1,47.557,47.557Z"/><text x="0" y="79" fill="#000000" font-size="5px" font-weight="bold" font-family="'Helvetica Neue', Helvetica, Arial-Unicode, Arial, Sans-serif">Created by kumakamu</text><text x="0" y="84" fill="#000000" font-size="5px" font-weight="bold" font-family="'Helvetica Neue', Helvetica, Arial-Unicode, Arial, Sans-serif">from the Noun Project</text></svg>