<svg xmlns="http://www.w3.org/2000/svg" data-name="Layer 1" viewBox="0 0 64 80" x="0px" y="0px"><path d="M15.029,15.029a24,24,0,1,0,33.942,0A24.031,24.031,0,0,0,15.029,15.029ZM10.012,31.961a21.946,21.946,0,0,1,4.8-13.679c.42,5.172,1.363,10.741,4.483,16.04C14.711,36.179,10.922,32.863,10.012,31.961ZM16.669,16.24a21.844,21.844,0,0,1,11.789-5.923,14.5,14.5,0,0,0-4.191,9.373c-.06.83-.106,1.661-.151,2.484-.26,4.756-.494,8.945-3.1,11.147C17.728,27.778,17.02,21.9,16.669,16.24Zm9.444,6.043c.045-.812.09-1.632.148-2.45a12.374,12.374,0,0,1,5.767-9.821,21.927,21.927,0,0,1,14.786,5.76L24.567,38.019a27.751,27.751,0,0,1-2.456-3.012C25.561,32.283,25.843,27.211,26.113,22.283ZM24.567,40.847a29.544,29.544,0,0,0,3.4,2.757,10.122,10.122,0,0,0,1.364,10.2,21.859,21.859,0,0,1-12.143-5.58Zm5.112,3.86c5.3,3.119,10.866,4.063,16.039,4.482a21.948,21.948,0,0,1-13.679,4.8C31.134,53.072,27.824,49.282,29.679,44.707Zm-.686-2.818a27.633,27.633,0,0,1-3.012-2.456L48.228,17.186a21.924,21.924,0,0,1,5.76,14.787,12.374,12.374,0,0,1-9.82,5.766c-.819.058-1.64.1-2.453.148C36.789,38.157,31.718,38.439,28.993,41.889Zm-18.8-7.213a11.259,11.259,0,0,0,6.374,2.209,9.264,9.264,0,0,0,3.83-.849,29.524,29.524,0,0,0,2.756,3.4l-7.381,7.381A21.86,21.86,0,0,1,10.193,34.676ZM47.76,47.332c-5.661-.352-11.538-1.06-17.08-4.344,2.2-2.61,6.389-2.843,11.144-3.1.824-.045,1.656-.091,2.487-.15a14.505,14.505,0,0,0,9.372-4.192A21.857,21.857,0,0,1,47.76,47.332Z"/><text x="0" y="79" fill="#000000" font-size="5px" font-weight="bold" font-family="'Helvetica Neue', Helvetica, Arial-Unicode, Arial, Sans-serif">Created by kumakamu</text><text x="0" y="84" fill="#000000" font-size="5px" font-weight="bold" font-family="'Helvetica Neue', Helvetica, Arial-Unicode, Arial, Sans-serif">from the Noun Project</text></svg>