<svg xmlns="http://www.w3.org/2000/svg" version="1.1" viewBox="-5.0 -10.0 110.0 135.0">
 <path d="m73.48 17.191c-4.2891-1.3711-8.7891-2.3711-13.352-2.9688l-2.1602-0.28906-0.10156 2.1797c-0.17969 3.9805-3.6406 7.1016-7.8711 7.1016-4.2305 0-7.6914-3.1211-7.8711-7.1016l-0.10156-2.1797-2.1602 0.28906c-4.5703 0.60156-9.0586 1.6016-13.352 2.9688l-0.39844 0.12891-19.703 17.352 13.379 15.672 5.3281-4.3711v39.828h49.75v-39.828l5.3281 4.3711 13.379-15.672-19.699-17.352-0.39844-0.12891zm6.2305 27.57-8.8281-7.2305v44.281l-41.762-0.003906v-44.281l-8.8281 7.2305-8.2812-9.6992 16.121-14.191c3.3398-1.0391 6.8008-1.8516 10.32-2.4102 1.25 5.0508 5.9492 8.7383 11.551 8.7383 5.6016 0 10.301-3.6992 11.551-8.7383 3.5195 0.55859 6.9883 1.3711 10.32 2.4102l16.121 14.191-8.2812 9.6992z"/>
<text x="0.0" y="117.5" font-size="5.0" font-weight="bold" font-family="Arbeit Regular, Helvetica, Arial-Unicode, Arial, Sans-serif" fill="#000000">Created by Kim Naces</text><text x="0.0" y="122.5" font-size="5.0" font-weight="bold" font-family="Arbeit Regular, Helvetica, Arial-Unicode, Arial, Sans-serif" fill="#000000">from Noun Project</text></svg>