<svg xmlns="http://www.w3.org/2000/svg" viewBox="0 0 100 125" fill="none" x="0px" y="0px"><path fill-rule="evenodd" clip-rule="evenodd" d="M50 62C47.7909 62 46 63.7909 46 66V70H38V66C38 59.3726 43.3726 54 50 54C56.6274 54 62 59.3726 62 66V70H54V66C54 63.7909 52.2091 62 50 62Z" fill="black"/><path fill-rule="evenodd" clip-rule="evenodd" d="M50 50C41.1634 50 34 57.1634 34 66V70H26V66C26 52.7452 36.7452 42 50 42C63.2548 42 74 52.7452 74 66V70H66V66C66 57.1634 58.8366 50 50 50Z" fill="black"/><path fill-rule="evenodd" clip-rule="evenodd" d="M50 38C34.536 38 22 50.536 22 66V70H14V66C14 46.1177 30.1177 30 50 30C69.8823 30 86 46.1177 86 66V70H78V66C78 50.536 65.464 38 50 38Z" fill="black"/><text x="0" y="115" fill="#000000" font-size="5px" font-weight="bold" font-family="'Helvetica Neue', Helvetica, Arial-Unicode, Arial, Sans-serif">Created by Viola Yorika</text><text x="0" y="120" fill="#000000" font-size="5px" font-weight="bold" font-family="'Helvetica Neue', Helvetica, Arial-Unicode, Arial, Sans-serif">from the Noun Project</text></svg>